# xmcd CD database file
#
# Track frame offsets:
#	150
#	15405
#	28480
#	41710
#	55147
#	68930
#	81862
#	95177
#	107692
#	120595
#	133180
#	144982
#	157975
#
# Disc length: 2299 seconds
#
# Revision: 2
# Processed by: cddbd v1.5.1PL0 Copyright (c) Steve Scherf et al.
# Submitted via: CDex 1.50
#
DISCID=b308f90d
DTITLE=Mississippi John Hurt - Avalon Blues: The Complete 1928 OKeh Recordings
DYEAR=1900
DGENRE=Blues
TTITLE0=Frankie
TTITLE1=Nobody's Dirty Business
TTITLE2=Ain't No Tellin'
TTITLE3=Louis Collins
TTITLE4=Avalon Blues
TTITLE5=Big Leg Blues
TTITLE6=Stack O'Lee
TTITLE7=Candy Man Blues
TTITLE8=Got The Blues (Can't Be Satisfied)
TTITLE9=Blessed Be The Name
TTITLE10=Praying On The Old Camp Ground
TTITLE11=Blue Harvest Blues
TTITLE12=Spike Driver Blues
EXTD=
EXTT0=
EXTT1=
EXTT2=
EXTT3=
EXTT4=
EXTT5=
EXTT6=
EXTT7=
EXTT8=
EXTT9=
EXTT10=
EXTT11=
EXTT12=
PLAYORDER=
